<?xml version="1.0" standalone="no"?>
<!DOCTYPE svg PUBLIC "-//W3C//DTD SVG 20010904//EN"
 "http://www.w3.org/TR/2001/REC-SVG-20010904/DTD/svg10.dtd">
<svg version="1.0" xmlns="http://www.w3.org/2000/svg"
 width="16.000000pt" height="16.000000pt" viewBox="0 0 16.000000 16.000000"
 preserveAspectRatio="xMidYMid meet">

<g transform="translate(0.000000,16.000000) scale(0.100000,-0.100000)"
fill="#16182357" stroke="none">
<path d="M25 135 c-69 -68 23 -175 103 -119 12 8 22 20 22 26 0 6 -9 3 -20 -7
-25 -23 -76 -24 -97 -2 -21 21 -21 73 0 94 21 22 72 21 97 -2 11 -10 20 -13
20 -7 0 18 -42 42 -73 42 -16 0 -38 -10 -52 -25z"/>
</g>
</svg>
